#!OML:ASF H:\Dans Jumps\Project 1\Capture day 1\Session 1\subject.ASF
:FULLY-SPECIFIED
:DEGREES
165
root 0.56482 17.0302 -15.0009 18.8583 -1.20587 -1.84445
lowerback 8.35321 -0.0845231 -0.444778
upperback 4.60241 -0.126745 2.38995
thorax 0.085014 -0.100619 2.72638
lowerneck -16.9986 0.357267 -1.98081
upperneck 15.1074 1.08734 -0.567432
head 7.43561 0.346997 0.258816
rclavicle -5.1684e-015 2.78299e-015
rhumerus -25.4996 -17.1507 -76.0608
rradius 24.1964
rwrist 33.0675
rhand -17.8409 -26.2261
rfingers 7.12502
rthumb 8.42392 -56.0381
lclavicle -5.1684e-015 2.78299e-015
lhumerus -25.0596 2.50125 82.8614
lradius 17.941
lwrist 4.83252
lhand -24.045 -4.40199
lfingers 7.12502
lthumb 2.43394 25.5639
rfemur -40.8762 -2.51899 22.2201
rtibia 39.4647
rfoot -21.127 -4.01595
rtoes 0.252732
lfemur -41.4695 10.6814 -22.5237
ltibia 38.6223
lfoot -17.2925 6.74001
ltoes -9.59464
166
root 0.564388 17.0153 -15.0105 19.0963 -1.18002 -1.88733
lowerback 8.6094 -0.0696495 -0.429143
upperback 4.65158 -0.104424 2.41812
thorax -0.0058994 -0.0892897 2.74629
lowerneck -17.0483 0.344611 -1.99035
upperneck 14.808 1.07095 -0.574082
head 7.34585 0.34122 0.255677
rclavicle 6.95746e-015 -1.59028e-015
rhumerus -25.6032 -17.259 -75.9657
rradius 24.0957
rwrist 33.1912
rhand -17.8022 -26.2492
rfingers 7.12502
rthumb 8.46122 -56.0597
lclavicle 6.95746e-015 -1.59028e-015
lhumerus -25.138 2.64263 82.8118
lradius 17.7198
lwrist 4.53365
lhand -23.9172 -4.31418
lfingers 7.12502
lthumb 2.55734 25.6502
rfemur -41.3491 -2.57559 22.3169
rtibia 39.8312
rfoot -21.5434 -4.25882
rtoes 0.0234073
lfemur -41.9766 10.654 -22.5261
ltibia 39.0534
lfoot -17.6501 7.13112
ltoes -9.64706
167
root 0.563766 17.0007 -15.018 19.3273 -1.14933 -1.93561
lowerback 8.85312 -0.0555251 -0.405998
upperback 4.70239 -0.0825537 2.44559
thorax -0.0881052 -0.078137 2.76113
lowerneck -17.0943 0.330538 -2.00234
upperneck 14.5077 1.0514 -0.571106
head 7.25529 0.334737 0.255751
rclavicle -3.57812e-015 -1.51076e-014
rhumerus -25.6985 -17.3555 -75.8854
rradius 23.9989
rwrist 33.3043
rhand -17.7658 -26.281
rfingers 7.12502
rthumb 8.49635 -56.0901
lclavicle -3.57812e-015 -1.51076e-014
lhumerus -25.206 2.78888 82.7585
lradius 17.5075
lwrist 4.22181
lhand -23.755 -4.12528
lfingers 7.12502
lthumb 2.71399 25.8372
rfemur -41.8018 -2.62739 22.4194
rtibia 40.1876
rfoot -21.9356 -4.53485
rtoes -0.170334
lfemur -42.4679 10.6267 -22.5193
ltibia 39.4831
lfoot -18.0105 7.54864
ltoes -9.62959
168
root 0.563024 16.9862 -15.0236 19.55 -1.11543 -1.99095
lowerback 9.09076 -0.0420642 -0.375588
upperback 4.74825 -0.0608 2.47338
thorax -0.171978 -0.066883 2.77209
lowerneck -17.1398 0.315704 -2.01161
upperneck 14.2233 1.02995 -0.565703
head 7.16999 0.327539 0.256022
rclavicle 4.96962e-015 -1.45113e-014
rhumerus -25.8003 -17.4408 -75.812
rradius 23.9097
rwrist 33.414
rhand -17.7289 -26.3135
rfingers 7.12502
rthumb 8.53194 -56.1211
lclavicle 4.96962e-015 -1.45113e-014
lhumerus -25.279 2.94851 82.7005
lradius 17.2998
lwrist 3.90007
lhand -23.6008 -3.94537
lfingers 7.12502
lthumb 2.86293 26.0152
rfemur -42.2328 -2.67571 22.53
rtibia 40.5328
rfoot -22.3162 -4.82255
rtoes -0.421141
lfemur -42.9417 10.6037 -22.5033
ltibia 39.9086
lfoot -18.3712 7.97361
ltoes -9.61157
169
root 0.562163 16.972 -15.027 19.7622 -1.07893 -2.05019
lowerback 9.32444 -0.0301915 -0.342354
upperback 4.78779 -0.0406343 2.50156
thorax -0.26001 -0.0563111 2.78193
lowerneck -17.1851 0.303443 -2.01415
upperneck 13.9612 1.01098 -0.562153
head 7.0921 0.321463 0.254943
rclavicle 5.96354e-016 -7.95139e-015
rhumerus -25.9079 -17.5144 -75.7431
rradius 23.8237
rwrist 33.5181
rhand -17.6884 -26.3391
rfingers 7.12502
rthumb 8.57103 -56.1451
lclavicle 5.96354e-016 -7.95139e-015
lhumerus -25.3606 3.12472 82.638
lradius 17.0984
lwrist 3.57247
lhand -23.4744 -3.81119
lfingers 7.12502
lthumb 2.98501 26.1477
rfemur -42.6402 -2.72076 22.6448
rtibia 40.8676
rfoot -22.6984 -5.1044
rtoes -0.797548
lfemur -43.3955 10.5861 -22.4822
ltibia 40.3279
lfoot -18.7311 8.38513
ltoes -9.63564
170
root 0.56118 16.958 -15.0282 19.9592 -1.03985 -2.11334
lowerback 9.56344 -0.0190821 -0.309294
upperback 4.81776 -0.0209892 2.53258
thorax -0.360703 -0.0458819 2.79484
lowerneck -17.2333 0.299329 -1.98956
upperneck 13.7319 1.00125 -0.583713
head 7.0258 0.318533 0.242397
rclavicle 9.54166e-015 4.17448e-015
rhumerus -26.0321 -17.5829 -75.6671
rradius 23.7404
rwrist 33.633
rhand -17.6492 -26.3368
rfingers 7.12502
rthumb 8.60884 -56.1413
lclavicle 9.54166e-015 4.17448e-015
lhumerus -25.4601 3.30933 82.5769
lradius 16.9031
lwrist 3.26092
lhand -23.403 -3.77746
lfingers 7.12502
lthumb 3.05395 26.1804
rfemur -43.0182 -2.76245 22.7636
rtibia 41.1935
rfoot -23.098 -5.37483
rtoes -1.31541
lfemur -43.8224 10.5738 -22.4547
ltibia 40.7391
lfoot -19.0953 8.77244
ltoes -9.73613
171
root 0.560119 16.9443 -15.0271 20.139 -1.00011 -2.18029
lowerback 9.80926 -0.0082402 -0.277223
upperback 4.83826 -0.00123369 2.56674
thorax -0.474806 -0.0352967 2.81155
lowerneck -17.2818 0.295246 -1.96747
upperneck 13.5347 0.99241 -0.604346
head 6.96998 0.315601 0.230765
rclavicle -1.98785e-015 -5.96354e-016
rhumerus -26.1689 -17.6524 -75.5824
rradius 23.6547
rwrist 33.7611
rhand -17.6196 -26.3067
rfingers 7.12502
rthumb 8.63745 -56.11
lclavicle -1.98785e-015 -5.96354e-016
lhumerus -25.5803 3.49502 82.5204
lradius 16.7202
lwrist 2.98237
lhand -23.3863 -3.82904
lfingers 7.12502
lthumb 3.07007 26.1286
rfemur -43.3651 -2.79908 22.8848
rtibia 41.513
rfoot -23.519 -5.63702
rtoes -1.89924
lfemur -44.2185 10.5639 -22.4188
ltibia 41.1406
lfoot -19.4659 9.13773
ltoes -9.9043
172
root 0.55893 16.9307 -15.0239 20.3059 -0.95839 -2.24575
lowerback 10.0487 0.00221364 -0.248801
upperback 4.8613 0.0178119 2.60113
thorax -0.582617 -0.0252088 2.83054
lowerneck -17.3376 0.29091 -1.94884
upperneck 13.3526 0.983821 -0.621445
head 6.92036 0.31273 0.220949
rclavicle -8.15017e-015 -1.27222e-014
rhumerus -26.2952 -17.7112 -75.5054
rradius 23.5783
rwrist 33.8782
rhand -17.5805 -26.2799
rfingers 7.12502
rthumb 8.6752 -56.0817
lclavicle -8.15017e-015 -1.27222e-014
lhumerus -25.6895 3.68326 82.4648
lradius 16.5447
lwrist 2.72802
lhand -23.4294 -3.94979
lfingers 7.12502
lthumb 3.02847 26.0084
rfemur -43.6866 -2.83124 23.0023
rtibia 41.8291
rfoot -23.9522 -5.91341
rtoes -2.51752
lfemur -44.5872 10.5445 -22.376
ltibia 41.5318
lfoot -19.8397 9.49335
ltoes -10.0948
173
root 0.557617 16.9175 -15.0185 20.4558 -0.917073 -2.30254
lowerback 10.2907 0.0125532 -0.231937
upperback 4.87916 0.0360307 2.6354
thorax -0.697022 -0.0156254 2.85601
lowerneck -17.3899 0.285509 -1.93355
upperneck 13.1882 0.974719 -0.63846
head 6.87593 0.309246 0.211696
rclavicle -6.95746e-015 -7.95139e-015
rhumerus -26.4297 -17.7653 -75.4241
rradius 23.5103
rwrist 33.9923
rhand -17.5389 -26.2386
rfingers 7.12502
rthumb 8.71529 -56.0387
lclavicle -6.95746e-015 -7.95139e-015
lhumerus -25.8092 3.86197 82.4164
lradius 16.383
lwrist 2.51687
lhand -23.4851 -4.07256
lfingers 7.12502
lthumb 2.97467 25.8864
rfemur -43.9783 -2.85907 23.1066
rtibia 42.1445
rfoot -24.3948 -6.22412
rtoes -3.12254
lfemur -44.9191 10.5067 -22.3294
ltibia 41.9123
lfoot -20.2238 9.87205
ltoes -10.3277
174
root 0.556049 16.9044 -15.0109 20.5923 -0.87511 -2.34618
lowerback 10.5293 0.0218346 -0.229201
upperback 4.89888 0.0515748 2.66645
thorax -0.807362 -0.00758323 2.88636
lowerneck -17.437 0.275773 -1.93707
upperneck 13.0223 0.961112 -0.636988
head 6.82997 0.304348 0.211003
rclavicle -2.78299e-015 1.43125e-014
rhumerus -26.5519 -17.8152 -75.3521
rradius 23.4509
rwrist 34.0947
rhand -17.4925 -26.207
rfingers 7.12502
rthumb 8.76014 -56.0052
lclavicle -2.78299e-015 1.43125e-014
lhumerus -25.9168 4.03759 82.3688
lradius 16.2271
lwrist 2.32783
lhand -23.517 -4.14161
lfingers 7.12502
lthumb 2.94382 25.8178
rfemur -44.2473 -2.88176 23.193
rtibia 42.4616
rfoot -24.8288 -6.57471
rtoes -3.66209
lfemur -45.2182 10.4381 -22.2786
ltibia 42.2824
lfoot -20.6167 10.2845
ltoes -10.5811
175
root 0.554147 16.8916 -15.0015 20.7157 -0.830331 -2.3728
lowerback 10.7639 0.0292198 -0.240237
upperback 4.92199 0.0631663 2.69164
thorax -0.91164 -0.00169092 2.91881
lowerneck -17.4782 0.264924 -1.94681
upperneck 12.8505 0.94587 -0.626786
head 6.78107 0.299219 0.213953
rclavicle 2.38542e-015 -2.38542e-015
rhumerus -26.6643 -17.8569 -75.294
rradius 23.407
rwrist 34.1753
rhand -17.4482 -26.1933
rfingers 7.12502
rthumb 8.80287 -55.9897
lclavicle 2.38542e-015 -2.38542e-015
lhumerus -26.0103 4.19877 82.3224
lradius 16.08
lwrist 2.1677
lhand -23.5063 -4.16253
lfingers 7.12502
lthumb 2.9541 25.7968
rfemur -44.4951 -2.90049 23.2573
rtibia 42.7811
rfoot -25.2429 -6.9636
rtoes -4.11444
lfemur -45.4838 10.3364 -22.2274
ltibia 42.6414
lfoot -21.0276 10.7315
ltoes -10.8476
176
root 0.552013 16.8789 -14.9901 20.8264 -0.785803 -2.38277
lowerback 11.0021 0.0355483 -0.26414
upperback 4.94027 0.0721304 2.70997
thorax -1.02265 0.00291132 2.95172
lowerneck -17.516 0.253329 -1.95627
upperneck 12.6879 0.929257 -0.614353
head 6.73462 0.29355 0.217448
rclavicle 9.54166e-015 -1.59028e-014
rhumerus -26.7818 -17.895 -75.2432
rradius 23.3793
rwrist 34.2372
rhand -17.4062 -26.1847
rfingers 7.12502
rthumb 8.84337 -55.9794
lclavicle 9.54166e-015 -1.59028e-014
lhumerus -26.1105 4.33701 82.2794
lradius 15.9484
lwrist 2.04219
lhand -23.482 -4.1924
lfingers 7.12502
lthumb 2.97758 25.7666
rfemur -44.7249 -2.91553 23.3
rtibia 43.1034
rfoot -25.6383 -7.37948
rtoes -4.48132
lfemur -45.7166 10.2058 -22.179
ltibia 42.9899
lfoot -21.4613 11.204
ltoes -11.1338
177
root 0.549679 16.8664 -14.977 20.9277 -0.735965 -2.37561
lowerback 11.2412 0.0381445 -0.29905
upperback 4.95311 0.0750303 2.72271
thorax -1.13939 0.00454984 2.98579
lowerneck -17.5449 0.241805 -1.97049
upperneck 12.5289 0.912973 -0.597013
head 6.68786 0.288221 0.223326
rclavicle -1.59028e-014 -2.98177e-014
rhumerus -26.9026 -17.9196 -75.2003
rradius 23.3643
rwrist 34.2699
rhand -17.3766 -26.1699
rfingers 7.12502
rthumb 8.87194 -55.9634
lclavicle -1.59028e-014 -2.98177e-014
lhumerus -26.2158 4.44702 82.2423
lradius 15.8377
lwrist 1.9592
lhand -23.439 -4.19907
lfingers 7.12502
lthumb 3.01914 25.7593
rfemur -44.9393 -2.93054 23.3223
rtibia 43.4279
rfoot -26.022 -7.80686
rtoes -4.75523
lfemur -45.9221 10.0443 -22.1356
ltibia 43.327
lfoot -21.9158 11.6963
ltoes -11.4668
